<svg width="96" height="93" viewBox="0 0 96 93" fill="none" xmlns="http://www.w3.org/2000/svg">
<path fill-rule="evenodd" clip-rule="evenodd" d="M9.56968 33.2903V33.3273C9.53242 33.4985 9.51845 33.6234 9.51845 33.7067C9.51845 34.2388 9.8258 34.6367 10.4312 34.8958C11.0459 35.1549 11.9912 35.2845 13.2672 35.2845C14.2405 35.2845 14.9995 35.1781 15.5537 34.9652C16.1078 34.7524 16.3872 34.4609 16.3872 34.0861C16.3872 33.5216 15.2882 33.0682 13.1088 32.7119C12.8527 32.6703 12.6618 32.6379 12.5361 32.6194C12.3964 32.5916 12.1915 32.5593 11.9214 32.5176C8.45205 31.9531 6.21678 31.3424 5.23419 30.6807C4.75454 30.3569 4.38666 29.9775 4.13984 29.5379C3.90235 29.0984 3.77661 28.6033 3.77661 28.0573C3.77661 26.7063 4.57293 25.6837 6.16555 24.9758C7.75818 24.2725 10.0912 23.9209 13.1647 23.9209C16.2382 23.9209 18.4455 24.2494 19.9078 24.911C21.37 25.5727 22.1011 26.5952 22.1011 27.9648V28.1221H16.3546V28.0619C16.3546 27.5854 16.0659 27.2337 15.4838 26.9931C14.9017 26.7479 14.0495 26.623 12.9272 26.623C12.0564 26.623 11.3812 26.7063 10.9155 26.8821C10.4405 27.0533 10.203 27.3031 10.203 27.6224C10.203 28.1961 11.4557 28.6773 13.961 29.0799C14.4407 29.1539 14.8226 29.2094 15.0973 29.251C16.8809 29.5472 18.1522 29.8016 18.9112 30.0191C19.6703 30.2319 20.3222 30.4818 20.8717 30.7733C21.4818 31.1064 21.9614 31.5275 22.2874 32.0364C22.618 32.5454 22.7857 33.096 22.7857 33.7021C22.7857 35.0948 21.9149 36.159 20.1825 36.9085C18.4455 37.6581 15.9448 38.0328 12.6851 38.0328C9.42532 38.0328 7.12486 37.6719 5.6859 36.9548C4.24229 36.233 3.52515 35.0809 3.52515 33.4893V33.2857H9.56968V33.2903ZM25.3143 37.8061V24.1337H41.697V27.081H31.466V29.2557H40.9286V32.166H31.466V34.8172H42.0835V37.8015H25.3097L25.3143 37.8061ZM44.654 37.8061V24.1337H52.4402L60.7759 33.3088V24.1337H66.6854V37.8061H58.6105L50.5496 28.6033V37.8061H44.6587H44.654ZM82.579 32.3557L79.6359 27.3864L76.5252 32.3557H82.5837H82.579ZM73.2049 37.8061H67.0346L76.5578 24.1337H83.3847L92.4701 37.8061H85.6199L84.2322 35.34H74.6904L73.2096 37.8061H73.2049Z" fill="#39A900"/>
<path fill-rule="evenodd" clip-rule="evenodd" d="M18.2128 86.0088L12.7177 80.873L29.4496 52.0245C30.3624 50.4513 29.2214 48.4849 27.3913 48.4849H0V41.2716H44.0813L18.2128 86.0088Z" fill="#39A900"/>
<path fill-rule="evenodd" clip-rule="evenodd" d="M77.7873 86.0088L83.2823 80.873L66.5504 52.0245C65.6377 50.4513 66.7786 48.4849 68.6087 48.4849H95.9954V41.2716H51.9141L77.7826 86.0088H77.7873Z" fill="#39A900"/>
<path fill-rule="evenodd" clip-rule="evenodd" d="M47.667 48.8967C47.7042 48.8273 47.7275 48.7949 47.7275 48.7949L72.5669 89.59L65.9682 93L49.9628 66.3678C49.0221 64.7993 46.731 64.7946 45.795 66.3678C40.4583 75.3022 29.892 93 29.892 93L23.433 89.826C23.433 89.826 46.3351 51.1361 47.6623 48.8967H47.667Z" fill="#39A900"/>
<path d="M47.9977 20.3582C53.6558 20.3582 58.2426 15.8009 58.2426 10.1791C58.2426 4.55734 53.6558 0 47.9977 0C42.3395 0 37.7527 4.55734 37.7527 10.1791C37.7527 15.8009 42.3395 20.3582 47.9977 20.3582Z" fill="#39A900"/>
</svg>
