<svg width="611" height="172" viewBox="0 0 611 172" fill="none" xmlns="http://www.w3.org/2000/svg">
<path d="M186.916 42.88C189.124 42.88 191.068 43.228 192.748 43.924C194.452 44.596 195.928 45.592 197.176 46.912L194.188 50.908C193.156 49.828 192.04 49.024 190.84 48.496C189.664 47.944 188.32 47.668 186.808 47.668C185.92 47.668 185.2 47.764 184.648 47.956C184.096 48.148 183.7 48.412 183.46 48.748C183.22 49.084 183.1 49.468 183.1 49.9C183.1 50.404 183.328 50.836 183.784 51.196C184.264 51.532 185.032 51.82 186.088 52.06L190.084 52.96C192.46 53.512 194.2 54.316 195.304 55.372C196.408 56.428 196.96 57.832 196.96 59.584C196.96 61.264 196.528 62.692 195.664 63.868C194.8 65.02 193.612 65.896 192.1 66.496C190.588 67.072 188.86 67.36 186.916 67.36C185.332 67.36 183.82 67.192 182.38 66.856C180.94 66.496 179.644 65.992 178.492 65.344C177.34 64.696 176.368 63.952 175.576 63.112L178.564 58.972C179.164 59.668 179.896 60.292 180.76 60.844C181.648 61.372 182.608 61.792 183.64 62.104C184.696 62.416 185.764 62.572 186.844 62.572C187.684 62.572 188.38 62.488 188.932 62.32C189.508 62.152 189.928 61.9 190.192 61.564C190.456 61.228 190.588 60.832 190.588 60.376C190.588 59.872 190.408 59.452 190.048 59.116C189.688 58.756 189.004 58.456 187.996 58.216L183.604 57.244C182.26 56.932 181.06 56.524 180.004 56.02C178.972 55.492 178.156 54.796 177.556 53.932C176.956 53.044 176.656 51.94 176.656 50.62C176.656 49.132 177.064 47.812 177.88 46.66C178.696 45.484 179.872 44.56 181.408 43.888C182.944 43.216 184.78 42.88 186.916 42.88ZM209.183 67.36C207.191 67.36 205.463 66.988 203.999 66.244C202.559 65.5 201.443 64.432 200.651 63.04C199.859 61.648 199.463 59.968 199.463 58C199.463 56.032 199.859 54.352 200.651 52.96C201.443 51.568 202.547 50.5 203.963 49.756C205.403 49.012 207.047 48.64 208.895 48.64C210.791 48.64 212.399 49.012 213.719 49.756C215.063 50.476 216.083 51.484 216.779 52.78C217.475 54.052 217.823 55.516 217.823 57.172C217.823 57.604 217.811 58.036 217.787 58.468C217.763 58.9 217.727 59.26 217.679 59.548H203.423V56.272H214.979L212.063 57.388C212.063 55.948 211.799 54.844 211.271 54.076C210.767 53.308 209.975 52.924 208.895 52.924C208.127 52.924 207.467 53.104 206.915 53.464C206.387 53.824 205.979 54.388 205.691 55.156C205.427 55.924 205.295 56.908 205.295 58.108C205.295 59.284 205.451 60.244 205.763 60.988C206.075 61.708 206.519 62.236 207.095 62.572C207.671 62.884 208.367 63.04 209.183 63.04C210.095 63.04 210.815 62.86 211.343 62.5C211.895 62.14 212.303 61.636 212.567 60.988L217.463 62.608C217.127 63.64 216.539 64.516 215.699 65.236C214.883 65.932 213.899 66.46 212.747 66.82C211.619 67.18 210.431 67.36 209.183 67.36ZM238.671 44.176L239.175 48.28C239.031 48.232 238.887 48.208 238.743 48.208C238.599 48.184 238.455 48.172 238.311 48.172C237.255 48.172 236.463 48.436 235.935 48.964C235.431 49.468 235.179 50.104 235.179 50.872L233.019 50.08C233.019 49.096 233.199 48.148 233.559 47.236C233.919 46.324 234.471 45.58 235.215 45.004C235.983 44.428 236.943 44.14 238.095 44.14C238.167 44.14 238.251 44.14 238.347 44.14C238.467 44.14 238.575 44.152 238.671 44.176ZM232.479 63.004C234.567 63.004 236.163 63.448 237.267 64.336C238.395 65.2 238.959 66.448 238.959 68.08C238.959 69.568 238.551 70.804 237.735 71.788C236.919 72.772 235.767 73.504 234.279 73.984C232.815 74.488 231.075 74.74 229.059 74.74C225.795 74.74 223.443 74.332 222.003 73.516C220.563 72.7 219.843 71.596 219.843 70.204C219.843 69.196 220.251 68.38 221.067 67.756C221.883 67.132 223.239 66.796 225.135 66.748L224.991 67.324C223.527 67.132 222.435 66.7 221.715 66.028C220.995 65.356 220.635 64.444 220.635 63.292C220.635 62.14 221.091 61.204 222.003 60.484C222.915 59.764 224.127 59.368 225.639 59.296L227.871 60.34H227.295C226.359 60.388 225.699 60.544 225.315 60.808C224.931 61.072 224.739 61.396 224.739 61.78C224.739 62.188 224.907 62.5 225.243 62.716C225.579 62.908 226.083 63.004 226.755 63.004H232.479ZM229.095 70.78C230.247 70.78 231.195 70.696 231.939 70.528C232.707 70.384 233.283 70.168 233.667 69.88C234.051 69.616 234.243 69.304 234.243 68.944C234.243 68.584 234.111 68.296 233.847 68.08C233.583 67.888 233.103 67.792 232.407 67.792H225.963C225.507 67.792 225.135 67.912 224.847 68.152C224.583 68.392 224.451 68.692 224.451 69.052C224.451 69.604 224.859 70.024 225.675 70.312C226.491 70.624 227.631 70.78 229.095 70.78ZM229.311 48.64C231.135 48.64 232.695 48.88 233.991 49.36C235.287 49.84 236.271 50.536 236.943 51.448C237.639 52.336 237.987 53.44 237.987 54.76C237.987 56.056 237.639 57.16 236.943 58.072C236.271 58.984 235.287 59.68 233.991 60.16C232.695 60.616 231.135 60.844 229.311 60.844C226.455 60.844 224.283 60.316 222.795 59.26C221.331 58.204 220.599 56.704 220.599 54.76C220.599 53.44 220.935 52.336 221.607 51.448C222.303 50.536 223.299 49.84 224.595 49.36C225.891 48.88 227.463 48.64 229.311 48.64ZM229.311 52.132C228.519 52.132 227.871 52.36 227.367 52.816C226.887 53.272 226.647 53.92 226.647 54.76C226.647 55.576 226.887 56.212 227.367 56.668C227.871 57.124 228.519 57.352 229.311 57.352C230.079 57.352 230.715 57.124 231.219 56.668C231.723 56.212 231.975 55.576 231.975 54.76C231.975 53.92 231.723 53.272 231.219 52.816C230.715 52.36 230.079 52.132 229.311 52.132ZM247.475 67.36C246.251 67.36 245.171 67.156 244.235 66.748C243.323 66.316 242.603 65.632 242.075 64.696C241.547 63.76 241.283 62.536 241.283 61.024V49H247.403V59.584C247.403 60.736 247.631 61.54 248.087 61.996C248.543 62.452 249.191 62.68 250.031 62.68C250.463 62.68 250.871 62.608 251.255 62.464C251.639 62.296 251.975 62.056 252.263 61.744C252.551 61.408 252.767 60.988 252.911 60.484C253.079 59.956 253.163 59.344 253.163 58.648V49H259.283V67H253.811L253.631 63.616C253.055 64.888 252.251 65.836 251.219 66.46C250.187 67.06 248.939 67.36 247.475 67.36ZM266.74 46.912C265.492 46.912 264.58 46.684 264.004 46.228C263.452 45.748 263.176 45.004 263.176 43.996C263.176 42.964 263.452 42.22 264.004 41.764C264.58 41.284 265.492 41.044 266.74 41.044C267.964 41.044 268.864 41.284 269.44 41.764C270.016 42.22 270.304 42.964 270.304 43.996C270.304 45.004 270.016 45.748 269.44 46.228C268.864 46.684 267.964 46.912 266.74 46.912ZM269.8 49V67H263.68V49H269.8ZM274.157 67V49H279.629L279.809 52.492C280.385 51.22 281.189 50.26 282.221 49.612C283.277 48.964 284.489 48.64 285.857 48.64C287.201 48.64 288.365 48.94 289.349 49.54C290.333 50.14 291.065 51.028 291.545 52.204C291.929 51.412 292.421 50.752 293.021 50.224C293.645 49.696 294.353 49.3 295.145 49.036C295.937 48.772 296.753 48.64 297.593 48.64C298.793 48.64 299.849 48.88 300.761 49.36C301.673 49.816 302.393 50.524 302.921 51.484C303.473 52.42 303.749 53.596 303.749 55.012V67H297.629V56.416C297.629 55.264 297.401 54.46 296.945 54.004C296.513 53.548 295.925 53.32 295.181 53.32C294.581 53.32 294.029 53.476 293.525 53.788C293.045 54.076 292.673 54.52 292.409 55.12C292.145 55.72 292.013 56.476 292.013 57.388V67H285.893V56.416C285.893 55.264 285.665 54.46 285.209 54.004C284.753 53.548 284.165 53.32 283.445 53.32C282.893 53.32 282.365 53.464 281.861 53.752C281.381 54.04 280.997 54.496 280.709 55.12C280.421 55.72 280.277 56.512 280.277 57.496V67H274.157ZM311.108 46.912C309.86 46.912 308.948 46.684 308.372 46.228C307.82 45.748 307.544 45.004 307.544 43.996C307.544 42.964 307.82 42.22 308.372 41.764C308.948 41.284 309.86 41.044 311.108 41.044C312.332 41.044 313.232 41.284 313.808 41.764C314.384 42.22 314.672 42.964 314.672 43.996C314.672 45.004 314.384 45.748 313.808 46.228C313.232 46.684 312.332 46.912 311.108 46.912ZM314.168 49V67H308.048V49H314.168ZM327.308 67.36C325.316 67.36 323.588 66.988 322.124 66.244C320.684 65.5 319.568 64.432 318.776 63.04C317.984 61.648 317.588 59.968 317.588 58C317.588 56.032 317.984 54.352 318.776 52.96C319.568 51.568 320.672 50.5 322.088 49.756C323.528 49.012 325.172 48.64 327.02 48.64C328.916 48.64 330.524 49.012 331.844 49.756C333.188 50.476 334.208 51.484 334.904 52.78C335.6 54.052 335.948 55.516 335.948 57.172C335.948 57.604 335.936 58.036 335.912 58.468C335.888 58.9 335.852 59.26 335.804 59.548H321.548V56.272H333.104L330.188 57.388C330.188 55.948 329.924 54.844 329.396 54.076C328.892 53.308 328.1 52.924 327.02 52.924C326.252 52.924 325.592 53.104 325.04 53.464C324.512 53.824 324.104 54.388 323.816 55.156C323.552 55.924 323.42 56.908 323.42 58.108C323.42 59.284 323.576 60.244 323.888 60.988C324.2 61.708 324.644 62.236 325.22 62.572C325.796 62.884 326.492 63.04 327.308 63.04C328.22 63.04 328.94 62.86 329.468 62.5C330.02 62.14 330.428 61.636 330.692 60.988L335.588 62.608C335.252 63.64 334.664 64.516 333.824 65.236C333.008 65.932 332.024 66.46 330.872 66.82C329.744 67.18 328.556 67.36 327.308 67.36ZM339.372 67V49H344.844L345.168 55.192L344.484 54.508C344.724 53.212 345.144 52.132 345.744 51.268C346.368 50.404 347.136 49.756 348.048 49.324C348.984 48.868 350.028 48.64 351.18 48.64C352.428 48.64 353.508 48.88 354.42 49.36C355.356 49.84 356.088 50.548 356.616 51.484C357.144 52.42 357.408 53.596 357.408 55.012V67H351.288V56.632C351.288 55.384 351.048 54.52 350.568 54.04C350.088 53.56 349.476 53.32 348.732 53.32C348.156 53.32 347.616 53.464 347.112 53.752C346.608 54.016 346.212 54.448 345.924 55.048C345.636 55.648 345.492 56.452 345.492 57.46V67H339.372ZM369.115 43.276V60.592C369.115 61.456 369.319 62.08 369.727 62.464C370.159 62.824 370.747 63.004 371.491 63.004C372.067 63.004 372.559 62.944 372.967 62.824C373.399 62.68 373.783 62.476 374.119 62.212L374.767 65.992C374.167 66.424 373.411 66.76 372.499 67C371.587 67.24 370.651 67.36 369.691 67.36C368.323 67.36 367.135 67.168 366.127 66.784C365.143 66.4 364.375 65.788 363.823 64.948C363.295 64.108 363.019 62.992 362.995 61.6V44.968L369.115 43.276ZM374.479 49V53.356H359.899V49H374.479ZM385.873 48.64C387.769 48.64 389.425 49.012 390.841 49.756C392.281 50.476 393.397 51.544 394.189 52.96C395.005 54.352 395.413 56.032 395.413 58C395.413 59.968 395.005 61.66 394.189 63.076C393.397 64.468 392.281 65.536 390.841 66.28C389.425 67 387.769 67.36 385.873 67.36C384.025 67.36 382.381 67 380.941 66.28C379.501 65.536 378.373 64.468 377.557 63.076C376.765 61.66 376.369 59.968 376.369 58C376.369 56.032 376.765 54.352 377.557 52.96C378.373 51.544 379.501 50.476 380.941 49.756C382.381 49.012 384.025 48.64 385.873 48.64ZM385.873 52.996C385.177 52.996 384.577 53.164 384.073 53.5C383.569 53.836 383.185 54.376 382.921 55.12C382.657 55.864 382.525 56.824 382.525 58C382.525 59.176 382.657 60.136 382.921 60.88C383.185 61.6 383.569 62.14 384.073 62.5C384.577 62.836 385.177 63.004 385.873 63.004C386.593 63.004 387.205 62.836 387.709 62.5C388.213 62.14 388.597 61.6 388.861 60.88C389.125 60.136 389.257 59.176 389.257 58C389.257 56.824 389.125 55.864 388.861 55.12C388.597 54.376 388.213 53.836 387.709 53.5C387.205 53.164 386.593 52.996 385.873 52.996ZM415.781 67.36C414.293 67.36 412.985 67 411.857 66.28C410.753 65.536 409.889 64.468 409.265 63.076C408.665 61.684 408.365 60.016 408.365 58.072C408.365 56.056 408.677 54.352 409.301 52.96C409.949 51.568 410.837 50.5 411.965 49.756C413.117 49.012 414.437 48.64 415.925 48.64C417.557 48.64 418.865 49.144 419.849 50.152C420.857 51.136 421.505 52.396 421.793 53.932L421.217 54.688V41.368H427.337V67H421.865L421.469 60.88L422.189 61.42C422.045 62.62 421.673 63.664 421.073 64.552C420.497 65.44 419.753 66.136 418.841 66.64C417.953 67.12 416.933 67.36 415.781 67.36ZM417.905 62.86C418.601 62.86 419.189 62.68 419.669 62.32C420.173 61.936 420.557 61.372 420.821 60.628C421.085 59.884 421.217 58.972 421.217 57.892C421.217 56.884 421.085 56.032 420.821 55.336C420.581 54.616 420.209 54.076 419.705 53.716C419.225 53.332 418.637 53.14 417.941 53.14C416.885 53.14 416.045 53.536 415.421 54.328C414.821 55.096 414.521 56.32 414.521 58C414.521 59.68 414.821 60.916 415.421 61.708C416.021 62.476 416.849 62.86 417.905 62.86ZM440.511 67.36C438.519 67.36 436.791 66.988 435.327 66.244C433.887 65.5 432.771 64.432 431.979 63.04C431.187 61.648 430.791 59.968 430.791 58C430.791 56.032 431.187 54.352 431.979 52.96C432.771 51.568 433.875 50.5 435.291 49.756C436.731 49.012 438.375 48.64 440.223 48.64C442.119 48.64 443.727 49.012 445.047 49.756C446.391 50.476 447.411 51.484 448.107 52.78C448.803 54.052 449.151 55.516 449.151 57.172C449.151 57.604 449.139 58.036 449.115 58.468C449.091 58.9 449.055 59.26 449.007 59.548H434.751V56.272H446.307L443.391 57.388C443.391 55.948 443.127 54.844 442.599 54.076C442.095 53.308 441.303 52.924 440.223 52.924C439.455 52.924 438.795 53.104 438.243 53.464C437.715 53.824 437.307 54.388 437.019 55.156C436.755 55.924 436.623 56.908 436.623 58.108C436.623 59.284 436.779 60.244 437.091 60.988C437.403 61.708 437.847 62.236 438.423 62.572C438.999 62.884 439.695 63.04 440.511 63.04C441.423 63.04 442.143 62.86 442.671 62.5C443.223 62.14 443.631 61.636 443.895 60.988L448.791 62.608C448.455 63.64 447.867 64.516 447.027 65.236C446.211 65.932 445.227 66.46 444.075 66.82C442.947 67.18 441.759 67.36 440.511 67.36ZM177.628 104V80.24H196.132V85.028H183.82V89.852H193.612V94.352H183.82V99.212H196.6V104H177.628ZM207.15 80.276V97.592C207.15 98.456 207.354 99.08 207.762 99.464C208.194 99.824 208.782 100.004 209.526 100.004C210.102 100.004 210.594 99.944 211.002 99.824C211.434 99.68 211.818 99.476 212.154 99.212L212.802 102.992C212.202 103.424 211.446 103.76 210.534 104C209.622 104.24 208.686 104.36 207.726 104.36C206.358 104.36 205.17 104.168 204.162 103.784C203.178 103.4 202.41 102.788 201.858 101.948C201.33 101.108 201.054 99.992 201.03 98.6V81.968L207.15 80.276ZM212.514 86V90.356H197.934V86H212.514ZM225.701 92.588C225.701 91.748 225.461 91.088 224.981 90.608C224.525 90.104 223.901 89.852 223.109 89.852C222.317 89.852 221.633 90.056 221.057 90.464C220.505 90.848 220.121 91.544 219.905 92.552L214.721 91.328C215.057 89.6 215.945 88.22 217.385 87.188C218.825 86.156 220.853 85.64 223.469 85.64C225.221 85.64 226.709 85.904 227.933 86.432C229.181 86.936 230.129 87.704 230.777 88.736C231.449 89.744 231.785 90.992 231.785 92.48V99.068C231.785 100.004 232.205 100.472 233.045 100.472C233.477 100.472 233.825 100.424 234.089 100.328L233.729 103.82C233.009 104.156 232.133 104.324 231.101 104.324C230.165 104.324 229.337 104.18 228.617 103.892C227.897 103.58 227.333 103.124 226.925 102.524C226.517 101.9 226.313 101.12 226.313 100.184V99.968L226.997 99.716C226.997 100.748 226.685 101.612 226.061 102.308C225.461 103.004 224.669 103.52 223.685 103.856C222.725 104.192 221.717 104.36 220.661 104.36C219.437 104.36 218.369 104.168 217.457 103.784C216.545 103.4 215.837 102.848 215.333 102.128C214.853 101.384 214.613 100.472 214.613 99.392C214.613 98.096 214.997 97.028 215.765 96.188C216.557 95.324 217.793 94.724 219.473 94.388L226.277 92.984L226.241 96.224L222.785 96.944C222.065 97.088 221.525 97.304 221.165 97.592C220.829 97.856 220.661 98.264 220.661 98.816C220.661 99.344 220.853 99.74 221.237 100.004C221.621 100.268 222.077 100.4 222.605 100.4C223.013 100.4 223.397 100.34 223.757 100.22C224.141 100.1 224.477 99.92 224.765 99.68C225.053 99.416 225.281 99.092 225.449 98.708C225.617 98.324 225.701 97.868 225.701 97.34V92.588ZM236.505 111.56V86H242.013L242.337 92.516L241.617 91.76C241.785 90.56 242.157 89.504 242.733 88.592C243.309 87.68 244.053 86.96 244.965 86.432C245.877 85.904 246.921 85.64 248.097 85.64C249.585 85.64 250.881 86.012 251.985 86.756C253.089 87.476 253.941 88.532 254.541 89.924C255.165 91.292 255.477 92.96 255.477 94.928C255.477 96.896 255.165 98.588 254.541 100.004C253.917 101.42 253.041 102.5 251.913 103.244C250.809 103.988 249.513 104.36 248.025 104.36C246.393 104.36 245.073 103.88 244.065 102.92C243.057 101.936 242.385 100.7 242.049 99.212L242.625 98.348V111.56H236.505ZM245.937 99.86C246.993 99.86 247.821 99.476 248.421 98.708C249.021 97.916 249.321 96.68 249.321 95C249.321 93.32 249.021 92.096 248.421 91.328C247.845 90.536 247.029 90.14 245.973 90.14C245.301 90.14 244.713 90.332 244.209 90.716C243.705 91.076 243.309 91.616 243.021 92.336C242.757 93.056 242.625 93.944 242.625 95C242.625 96.008 242.745 96.884 242.985 97.628C243.249 98.348 243.633 98.9 244.137 99.284C244.641 99.668 245.241 99.86 245.937 99.86ZM268.943 92.588C268.943 91.748 268.703 91.088 268.223 90.608C267.767 90.104 267.143 89.852 266.351 89.852C265.559 89.852 264.875 90.056 264.299 90.464C263.747 90.848 263.363 91.544 263.147 92.552L257.963 91.328C258.299 89.6 259.187 88.22 260.627 87.188C262.067 86.156 264.095 85.64 266.711 85.64C268.463 85.64 269.951 85.904 271.175 86.432C272.423 86.936 273.371 87.704 274.019 88.736C274.691 89.744 275.027 90.992 275.027 92.48V99.068C275.027 100.004 275.447 100.472 276.287 100.472C276.719 100.472 277.067 100.424 277.331 100.328L276.971 103.82C276.251 104.156 275.375 104.324 274.343 104.324C273.407 104.324 272.579 104.18 271.859 103.892C271.139 103.58 270.575 103.124 270.167 102.524C269.759 101.9 269.555 101.12 269.555 100.184V99.968L270.239 99.716C270.239 100.748 269.927 101.612 269.303 102.308C268.703 103.004 267.911 103.52 266.927 103.856C265.967 104.192 264.959 104.36 263.903 104.36C262.679 104.36 261.611 104.168 260.699 103.784C259.787 103.4 259.079 102.848 258.575 102.128C258.095 101.384 257.855 100.472 257.855 99.392C257.855 98.096 258.239 97.028 259.007 96.188C259.799 95.324 261.035 94.724 262.715 94.388L269.519 92.984L269.483 96.224L266.027 96.944C265.307 97.088 264.767 97.304 264.407 97.592C264.071 97.856 263.903 98.264 263.903 98.816C263.903 99.344 264.095 99.74 264.479 100.004C264.863 100.268 265.319 100.4 265.847 100.4C266.255 100.4 266.639 100.34 266.999 100.22C267.383 100.1 267.719 99.92 268.007 99.68C268.295 99.416 268.523 99.092 268.691 98.708C268.859 98.324 268.943 97.868 268.943 97.34V92.588ZM301.036 80.24C302.98 80.24 304.636 80.552 306.004 81.176C307.372 81.8 308.416 82.7 309.136 83.876C309.856 85.052 310.216 86.48 310.216 88.16C310.216 89.84 309.856 91.268 309.136 92.444C308.416 93.62 307.372 94.52 306.004 95.144C304.636 95.768 302.98 96.08 301.036 96.08H296.32V104H290.128V80.24H301.036ZM300.064 91.436C301.36 91.436 302.332 91.172 302.98 90.644C303.652 90.092 303.988 89.264 303.988 88.16C303.988 87.056 303.652 86.24 302.98 85.712C302.332 85.16 301.36 84.884 300.064 84.884H296.32V91.436H300.064ZM313.743 104V86H319.143L319.395 89.888C319.851 88.544 320.523 87.5 321.411 86.756C322.323 86.012 323.475 85.64 324.867 85.64C325.323 85.64 325.707 85.676 326.019 85.748C326.355 85.82 326.619 85.916 326.811 86.036L326.199 91.076C325.959 90.98 325.647 90.908 325.263 90.86C324.903 90.788 324.459 90.752 323.931 90.752C323.211 90.752 322.539 90.908 321.915 91.22C321.291 91.532 320.787 92 320.403 92.624C320.043 93.224 319.863 93.992 319.863 94.928V104H313.743ZM337.569 85.64C339.465 85.64 341.121 86.012 342.537 86.756C343.977 87.476 345.093 88.544 345.885 89.96C346.701 91.352 347.109 93.032 347.109 95C347.109 96.968 346.701 98.66 345.885 100.076C345.093 101.468 343.977 102.536 342.537 103.28C341.121 104 339.465 104.36 337.569 104.36C335.721 104.36 334.077 104 332.637 103.28C331.197 102.536 330.069 101.468 329.253 100.076C328.461 98.66 328.065 96.968 328.065 95C328.065 93.032 328.461 91.352 329.253 89.96C330.069 88.544 331.197 87.476 332.637 86.756C334.077 86.012 335.721 85.64 337.569 85.64ZM337.569 89.996C336.873 89.996 336.273 90.164 335.769 90.5C335.265 90.836 334.881 91.376 334.617 92.12C334.353 92.864 334.221 93.824 334.221 95C334.221 96.176 334.353 97.136 334.617 97.88C334.881 98.6 335.265 99.14 335.769 99.5C336.273 99.836 336.873 100.004 337.569 100.004C338.289 100.004 338.901 99.836 339.405 99.5C339.909 99.14 340.293 98.6 340.557 97.88C340.821 97.136 340.953 96.176 340.953 95C340.953 93.824 340.821 92.864 340.557 92.12C340.293 91.376 339.909 90.836 339.405 90.5C338.901 90.164 338.289 89.996 337.569 89.996ZM357.175 104.36C355.687 104.36 354.379 104 353.251 103.28C352.147 102.536 351.283 101.468 350.659 100.076C350.059 98.684 349.759 97.016 349.759 95.072C349.759 93.056 350.071 91.352 350.695 89.96C351.343 88.568 352.231 87.5 353.359 86.756C354.511 86.012 355.831 85.64 357.319 85.64C358.951 85.64 360.259 86.144 361.243 87.152C362.251 88.136 362.899 89.396 363.187 90.932L362.611 91.688V78.368H368.731V104H363.259L362.863 97.88L363.583 98.42C363.439 99.62 363.067 100.664 362.467 101.552C361.891 102.44 361.147 103.136 360.235 103.64C359.347 104.12 358.327 104.36 357.175 104.36ZM359.299 99.86C359.995 99.86 360.583 99.68 361.063 99.32C361.567 98.936 361.951 98.372 362.215 97.628C362.479 96.884 362.611 95.972 362.611 94.892C362.611 93.884 362.479 93.032 362.215 92.336C361.975 91.616 361.603 91.076 361.099 90.716C360.619 90.332 360.031 90.14 359.335 90.14C358.279 90.14 357.439 90.536 356.815 91.328C356.215 92.096 355.915 93.32 355.915 95C355.915 96.68 356.215 97.916 356.815 98.708C357.415 99.476 358.243 99.86 359.299 99.86ZM379.206 104.36C377.982 104.36 376.902 104.156 375.966 103.748C375.054 103.316 374.334 102.632 373.806 101.696C373.278 100.76 373.014 99.536 373.014 98.024V86H379.134V96.584C379.134 97.736 379.362 98.54 379.818 98.996C380.274 99.452 380.922 99.68 381.762 99.68C382.194 99.68 382.602 99.608 382.986 99.464C383.37 99.296 383.706 99.056 383.994 98.744C384.282 98.408 384.498 97.988 384.642 97.484C384.81 96.956 384.894 96.344 384.894 95.648V86H391.014V104H385.542L385.362 100.616C384.786 101.888 383.982 102.836 382.95 103.46C381.918 104.06 380.67 104.36 379.206 104.36ZM403.943 85.64C405.767 85.64 407.279 85.904 408.479 86.432C409.703 86.936 410.651 87.62 411.323 88.484C412.019 89.324 412.451 90.236 412.619 91.22L406.967 93.092C406.799 92.06 406.487 91.292 406.031 90.788C405.599 90.26 404.963 89.996 404.123 89.996C403.355 89.996 402.707 90.176 402.179 90.536C401.675 90.872 401.291 91.424 401.027 92.192C400.763 92.936 400.631 93.896 400.631 95.072C400.631 96.248 400.775 97.208 401.063 97.952C401.351 98.672 401.759 99.2 402.287 99.536C402.815 99.848 403.439 100.004 404.159 100.004C404.759 100.004 405.251 99.896 405.635 99.68C406.043 99.44 406.379 99.104 406.643 98.672C406.907 98.24 407.075 97.712 407.147 97.088L412.655 98.852C412.487 99.908 412.031 100.856 411.287 101.696C410.567 102.512 409.607 103.16 408.407 103.64C407.207 104.12 405.803 104.36 404.195 104.36C402.227 104.36 400.511 104 399.047 103.28C397.583 102.536 396.455 101.468 395.663 100.076C394.871 98.66 394.475 96.968 394.475 95C394.475 93.032 394.871 91.352 395.663 89.96C396.455 88.544 397.559 87.476 398.975 86.756C400.415 86.012 402.071 85.64 403.943 85.64ZM423.361 80.276V97.592C423.361 98.456 423.565 99.08 423.973 99.464C424.405 99.824 424.993 100.004 425.737 100.004C426.313 100.004 426.805 99.944 427.213 99.824C427.645 99.68 428.029 99.476 428.365 99.212L429.013 102.992C428.413 103.424 427.657 103.76 426.745 104C425.833 104.24 424.897 104.36 423.937 104.36C422.569 104.36 421.381 104.168 420.373 103.784C419.389 103.4 418.621 102.788 418.069 101.948C417.541 101.108 417.265 99.992 417.241 98.6V81.968L423.361 80.276ZM428.725 86V90.356H414.145V86H428.725ZM434.611 83.912C433.363 83.912 432.451 83.684 431.875 83.228C431.323 82.748 431.047 82.004 431.047 80.996C431.047 79.964 431.323 79.22 431.875 78.764C432.451 78.284 433.363 78.044 434.611 78.044C435.835 78.044 436.735 78.284 437.311 78.764C437.887 79.22 438.175 79.964 438.175 80.996C438.175 82.004 437.887 82.748 437.311 83.228C436.735 83.684 435.835 83.912 434.611 83.912ZM437.671 86V104H431.551V86H437.671ZM453.728 86H460.064L453.584 104H446.276L439.796 86H446.24L449.948 99.716L453.728 86ZM471.865 92.588C471.865 91.748 471.625 91.088 471.145 90.608C470.689 90.104 470.065 89.852 469.273 89.852C468.481 89.852 467.797 90.056 467.221 90.464C466.669 90.848 466.285 91.544 466.069 92.552L460.885 91.328C461.221 89.6 462.109 88.22 463.549 87.188C464.989 86.156 467.017 85.64 469.633 85.64C471.385 85.64 472.873 85.904 474.097 86.432C475.345 86.936 476.293 87.704 476.941 88.736C477.613 89.744 477.949 90.992 477.949 92.48V99.068C477.949 100.004 478.369 100.472 479.209 100.472C479.641 100.472 479.989 100.424 480.253 100.328L479.893 103.82C479.173 104.156 478.297 104.324 477.265 104.324C476.329 104.324 475.501 104.18 474.781 103.892C474.061 103.58 473.497 103.124 473.089 102.524C472.681 101.9 472.477 101.12 472.477 100.184V99.968L473.161 99.716C473.161 100.748 472.849 101.612 472.225 102.308C471.625 103.004 470.833 103.52 469.849 103.856C468.889 104.192 467.881 104.36 466.825 104.36C465.601 104.36 464.533 104.168 463.621 103.784C462.709 103.4 462.001 102.848 461.497 102.128C461.017 101.384 460.777 100.472 460.777 99.392C460.777 98.096 461.161 97.028 461.929 96.188C462.721 95.324 463.957 94.724 465.637 94.388L472.441 92.984L472.405 96.224L468.949 96.944C468.229 97.088 467.689 97.304 467.329 97.592C466.993 97.856 466.825 98.264 466.825 98.816C466.825 99.344 467.017 99.74 467.401 100.004C467.785 100.268 468.241 100.4 468.769 100.4C469.177 100.4 469.561 100.34 469.921 100.22C470.305 100.1 470.641 99.92 470.929 99.68C471.217 99.416 471.445 99.092 471.613 98.708C471.781 98.324 471.865 97.868 471.865 97.34V92.588Z" fill="#39A900"/>
<path d="M191.45 127.275C191.133 128.425 190.625 129.375 189.925 130.125C189.225 130.858 188.392 131.4 187.425 131.75C186.458 132.083 185.392 132.25 184.225 132.25C182.558 132.25 181.117 131.917 179.9 131.25C178.683 130.567 177.75 129.592 177.1 128.325C176.45 127.058 176.125 125.533 176.125 123.75C176.125 121.967 176.45 120.442 177.1 119.175C177.75 117.908 178.683 116.942 179.9 116.275C181.117 115.592 182.55 115.25 184.2 115.25C185.35 115.25 186.408 115.417 187.375 115.75C188.342 116.067 189.158 116.558 189.825 117.225C190.492 117.892 190.967 118.75 191.25 119.8L187.475 121.325C187.242 120.292 186.858 119.583 186.325 119.2C185.808 118.817 185.15 118.625 184.35 118.625C183.567 118.625 182.883 118.817 182.3 119.2C181.733 119.583 181.292 120.158 180.975 120.925C180.675 121.675 180.525 122.617 180.525 123.75C180.525 124.867 180.667 125.808 180.95 126.575C181.233 127.342 181.658 127.917 182.225 128.3C182.808 128.683 183.525 128.875 184.375 128.875C185.175 128.875 185.85 128.658 186.4 128.225C186.967 127.775 187.35 127.092 187.55 126.175L191.45 127.275ZM199.642 132.25C198.258 132.25 197.058 131.992 196.042 131.475C195.042 130.958 194.267 130.217 193.717 129.25C193.167 128.283 192.892 127.117 192.892 125.75C192.892 124.383 193.167 123.217 193.717 122.25C194.267 121.283 195.033 120.542 196.017 120.025C197.017 119.508 198.158 119.25 199.442 119.25C200.758 119.25 201.875 119.508 202.792 120.025C203.725 120.525 204.433 121.225 204.917 122.125C205.4 123.008 205.642 124.025 205.642 125.175C205.642 125.475 205.633 125.775 205.617 126.075C205.6 126.375 205.575 126.625 205.542 126.825H195.642V124.55H203.667L201.642 125.325C201.642 124.325 201.458 123.558 201.092 123.025C200.742 122.492 200.192 122.225 199.442 122.225C198.908 122.225 198.45 122.35 198.067 122.6C197.7 122.85 197.417 123.242 197.217 123.775C197.033 124.308 196.942 124.992 196.942 125.825C196.942 126.642 197.05 127.308 197.267 127.825C197.483 128.325 197.792 128.692 198.192 128.925C198.592 129.142 199.075 129.25 199.642 129.25C200.275 129.25 200.775 129.125 201.142 128.875C201.525 128.625 201.808 128.275 201.992 127.825L205.392 128.95C205.158 129.667 204.75 130.275 204.167 130.775C203.6 131.258 202.917 131.625 202.117 131.875C201.333 132.125 200.508 132.25 199.642 132.25ZM208.019 132V119.5H211.819L212.044 123.8L211.569 123.325C211.736 122.425 212.027 121.675 212.444 121.075C212.877 120.475 213.411 120.025 214.044 119.725C214.694 119.408 215.419 119.25 216.219 119.25C217.086 119.25 217.836 119.417 218.469 119.75C219.119 120.083 219.627 120.575 219.994 121.225C220.361 121.875 220.544 122.692 220.544 123.675V132H216.294V124.8C216.294 123.933 216.127 123.333 215.794 123C215.461 122.667 215.036 122.5 214.519 122.5C214.119 122.5 213.744 122.6 213.394 122.8C213.044 122.983 212.769 123.283 212.569 123.7C212.369 124.117 212.269 124.675 212.269 125.375V132H208.019ZM228.674 115.525V127.55C228.674 128.15 228.815 128.583 229.099 128.85C229.399 129.1 229.807 129.225 230.324 129.225C230.724 129.225 231.065 129.183 231.349 129.1C231.649 129 231.915 128.858 232.149 128.675L232.599 131.3C232.182 131.6 231.657 131.833 231.024 132C230.39 132.167 229.74 132.25 229.074 132.25C228.124 132.25 227.299 132.117 226.599 131.85C225.915 131.583 225.382 131.158 224.999 130.575C224.632 129.992 224.44 129.217 224.424 128.25V116.7L228.674 115.525ZM232.399 119.5V122.525H222.274V119.5H232.399ZM234.362 132V119.5H238.112L238.287 122.2C238.604 121.267 239.07 120.542 239.687 120.025C240.32 119.508 241.12 119.25 242.087 119.25C242.404 119.25 242.67 119.275 242.887 119.325C243.12 119.375 243.304 119.442 243.437 119.525L243.012 123.025C242.845 122.958 242.629 122.908 242.362 122.875C242.112 122.825 241.804 122.8 241.437 122.8C240.937 122.8 240.47 122.908 240.037 123.125C239.604 123.342 239.254 123.667 238.987 124.1C238.737 124.517 238.612 125.05 238.612 125.7V132H234.362ZM250.908 119.25C252.224 119.25 253.374 119.508 254.358 120.025C255.358 120.525 256.133 121.267 256.683 122.25C257.249 123.217 257.533 124.383 257.533 125.75C257.533 127.117 257.249 128.292 256.683 129.275C256.133 130.242 255.358 130.983 254.358 131.5C253.374 132 252.224 132.25 250.908 132.25C249.624 132.25 248.483 132 247.483 131.5C246.483 130.983 245.699 130.242 245.133 129.275C244.583 128.292 244.308 127.117 244.308 125.75C244.308 124.383 244.583 123.217 245.133 122.25C245.699 121.267 246.483 120.525 247.483 120.025C248.483 119.508 249.624 119.25 250.908 119.25ZM250.908 122.275C250.424 122.275 250.008 122.392 249.658 122.625C249.308 122.858 249.041 123.233 248.858 123.75C248.674 124.267 248.583 124.933 248.583 125.75C248.583 126.567 248.674 127.233 248.858 127.75C249.041 128.25 249.308 128.625 249.658 128.875C250.008 129.108 250.424 129.225 250.908 129.225C251.408 129.225 251.833 129.108 252.183 128.875C252.533 128.625 252.799 128.25 252.983 127.75C253.166 127.233 253.258 126.567 253.258 125.75C253.258 124.933 253.166 124.267 252.983 123.75C252.799 123.233 252.533 122.858 252.183 122.625C251.833 122.392 251.408 122.275 250.908 122.275ZM267.377 132V115.5H275.402C277.435 115.517 278.935 115.908 279.902 116.675C280.868 117.425 281.352 118.517 281.352 119.95C281.352 120.883 281.077 121.692 280.527 122.375C279.977 123.042 279.135 123.467 278.002 123.65V123.675C279.268 123.842 280.21 124.283 280.827 125C281.46 125.7 281.777 126.55 281.777 127.55C281.777 128.967 281.277 130.067 280.277 130.85C279.277 131.617 277.777 132 275.777 132H267.377ZM271.527 128.975H275.052C275.835 128.975 276.418 128.817 276.802 128.5C277.185 128.183 277.377 127.725 277.377 127.125C277.377 126.542 277.185 126.1 276.802 125.8C276.418 125.483 275.835 125.325 275.052 125.325H271.527V128.975ZM271.527 122.25H274.652C276.185 122.25 276.952 121.65 276.952 120.45C276.952 119.25 276.185 118.65 274.652 118.65H271.527V122.25ZM286.292 118.05C285.425 118.05 284.792 117.892 284.392 117.575C284.008 117.242 283.817 116.725 283.817 116.025C283.817 115.308 284.008 114.792 284.392 114.475C284.792 114.142 285.425 113.975 286.292 113.975C287.142 113.975 287.767 114.142 288.167 114.475C288.567 114.792 288.767 115.308 288.767 116.025C288.767 116.725 288.567 117.242 288.167 117.575C287.767 117.892 287.142 118.05 286.292 118.05ZM288.417 119.5V132H284.167V119.5H288.417ZM297.392 119.25C298.709 119.25 299.859 119.508 300.842 120.025C301.842 120.525 302.617 121.267 303.167 122.25C303.734 123.217 304.017 124.383 304.017 125.75C304.017 127.117 303.734 128.292 303.167 129.275C302.617 130.242 301.842 130.983 300.842 131.5C299.859 132 298.709 132.25 297.392 132.25C296.109 132.25 294.967 132 293.967 131.5C292.967 130.983 292.184 130.242 291.617 129.275C291.067 128.292 290.792 127.117 290.792 125.75C290.792 124.383 291.067 123.217 291.617 122.25C292.184 121.267 292.967 120.525 293.967 120.025C294.967 119.508 296.109 119.25 297.392 119.25ZM297.392 122.275C296.909 122.275 296.492 122.392 296.142 122.625C295.792 122.858 295.525 123.233 295.342 123.75C295.159 124.267 295.067 124.933 295.067 125.75C295.067 126.567 295.159 127.233 295.342 127.75C295.525 128.25 295.792 128.625 296.142 128.875C296.492 129.108 296.909 129.225 297.392 129.225C297.892 129.225 298.317 129.108 298.667 128.875C299.017 128.625 299.284 128.25 299.467 127.75C299.65 127.233 299.742 126.567 299.742 125.75C299.742 124.933 299.65 124.267 299.467 123.75C299.284 123.233 299.017 122.858 298.667 122.625C298.317 122.392 297.892 122.275 297.392 122.275ZM311.56 115.525V127.55C311.56 128.15 311.701 128.583 311.985 128.85C312.285 129.1 312.693 129.225 313.21 129.225C313.61 129.225 313.951 129.183 314.235 129.1C314.535 129 314.801 128.858 315.035 128.675L315.485 131.3C315.068 131.6 314.543 131.833 313.91 132C313.276 132.167 312.626 132.25 311.96 132.25C311.01 132.25 310.185 132.117 309.485 131.85C308.801 131.583 308.268 131.158 307.885 130.575C307.518 129.992 307.326 129.217 307.31 128.25V116.7L311.56 115.525ZM315.285 119.5V122.525H305.16V119.5H315.285ZM323.348 132.25C321.964 132.25 320.764 131.992 319.748 131.475C318.748 130.958 317.973 130.217 317.423 129.25C316.873 128.283 316.598 127.117 316.598 125.75C316.598 124.383 316.873 123.217 317.423 122.25C317.973 121.283 318.739 120.542 319.723 120.025C320.723 119.508 321.864 119.25 323.148 119.25C324.464 119.25 325.581 119.508 326.498 120.025C327.431 120.525 328.139 121.225 328.623 122.125C329.106 123.008 329.348 124.025 329.348 125.175C329.348 125.475 329.339 125.775 329.323 126.075C329.306 126.375 329.281 126.625 329.248 126.825H319.348V124.55H327.373L325.348 125.325C325.348 124.325 325.164 123.558 324.798 123.025C324.448 122.492 323.898 122.225 323.148 122.225C322.614 122.225 322.156 122.35 321.773 122.6C321.406 122.85 321.123 123.242 320.923 123.775C320.739 124.308 320.648 124.992 320.648 125.825C320.648 126.642 320.756 127.308 320.973 127.825C321.189 128.325 321.498 128.692 321.898 128.925C322.298 129.142 322.781 129.25 323.348 129.25C323.981 129.25 324.481 129.125 324.848 128.875C325.231 128.625 325.514 128.275 325.698 127.825L329.098 128.95C328.864 129.667 328.456 130.275 327.873 130.775C327.306 131.258 326.623 131.625 325.823 131.875C325.039 132.125 324.214 132.25 323.348 132.25ZM337.65 119.25C338.917 119.25 339.967 119.433 340.8 119.8C341.65 120.15 342.309 120.625 342.775 121.225C343.259 121.808 343.559 122.442 343.675 123.125L339.75 124.425C339.634 123.708 339.417 123.175 339.1 122.825C338.8 122.458 338.359 122.275 337.775 122.275C337.242 122.275 336.792 122.4 336.425 122.65C336.075 122.883 335.809 123.267 335.625 123.8C335.442 124.317 335.35 124.983 335.35 125.8C335.35 126.617 335.45 127.283 335.65 127.8C335.85 128.3 336.134 128.667 336.5 128.9C336.867 129.117 337.3 129.225 337.8 129.225C338.217 129.225 338.559 129.15 338.825 129C339.109 128.833 339.342 128.6 339.525 128.3C339.709 128 339.825 127.633 339.875 127.2L343.7 128.425C343.584 129.158 343.267 129.817 342.75 130.4C342.25 130.967 341.584 131.417 340.75 131.75C339.917 132.083 338.942 132.25 337.825 132.25C336.459 132.25 335.267 132 334.25 131.5C333.234 130.983 332.45 130.242 331.9 129.275C331.35 128.292 331.075 127.117 331.075 125.75C331.075 124.383 331.35 123.217 331.9 122.25C332.45 121.267 333.217 120.525 334.2 120.025C335.2 119.508 336.35 119.25 337.65 119.25ZM345.91 132V119.5H349.71L349.935 123.8L349.46 123.325C349.626 122.425 349.918 121.675 350.335 121.075C350.768 120.475 351.301 120.025 351.935 119.725C352.585 119.408 353.31 119.25 354.11 119.25C354.976 119.25 355.726 119.417 356.36 119.75C357.01 120.083 357.518 120.575 357.885 121.225C358.251 121.875 358.435 122.692 358.435 123.675V132H354.185V124.8C354.185 123.933 354.018 123.333 353.685 123C353.351 122.667 352.926 122.5 352.41 122.5C352.01 122.5 351.635 122.6 351.285 122.8C350.935 122.983 350.66 123.283 350.46 123.7C350.26 124.117 350.16 124.675 350.16 125.375V132H345.91ZM367.363 119.25C368.679 119.25 369.829 119.508 370.813 120.025C371.813 120.525 372.588 121.267 373.138 122.25C373.704 123.217 373.988 124.383 373.988 125.75C373.988 127.117 373.704 128.292 373.138 129.275C372.588 130.242 371.813 130.983 370.813 131.5C369.829 132 368.679 132.25 367.363 132.25C366.079 132.25 364.938 132 363.938 131.5C362.938 130.983 362.154 130.242 361.588 129.275C361.038 128.292 360.763 127.117 360.763 125.75C360.763 124.383 361.038 123.217 361.588 122.25C362.154 121.267 362.938 120.525 363.938 120.025C364.938 119.508 366.079 119.25 367.363 119.25ZM367.363 122.275C366.879 122.275 366.463 122.392 366.113 122.625C365.763 122.858 365.496 123.233 365.313 123.75C365.129 124.267 365.038 124.933 365.038 125.75C365.038 126.567 365.129 127.233 365.313 127.75C365.496 128.25 365.763 128.625 366.113 128.875C366.463 129.108 366.879 129.225 367.363 129.225C367.863 129.225 368.288 129.108 368.638 128.875C368.988 128.625 369.254 128.25 369.438 127.75C369.621 127.233 369.713 126.567 369.713 125.75C369.713 124.933 369.621 124.267 369.438 123.75C369.254 123.233 368.988 122.858 368.638 122.625C368.288 122.392 367.863 122.275 367.363 122.275ZM380.579 114.2V127.75C380.579 128.3 380.67 128.692 380.854 128.925C381.037 129.158 381.345 129.275 381.779 129.275C382.029 129.275 382.237 129.258 382.404 129.225C382.57 129.192 382.77 129.142 383.004 129.075L382.729 131.625C382.429 131.808 382.037 131.958 381.554 132.075C381.07 132.192 380.595 132.25 380.129 132.25C378.795 132.25 377.829 131.942 377.229 131.325C376.629 130.708 376.329 129.7 376.329 128.3V114.2H380.579ZM390.507 119.25C391.824 119.25 392.974 119.508 393.957 120.025C394.957 120.525 395.732 121.267 396.282 122.25C396.849 123.217 397.132 124.383 397.132 125.75C397.132 127.117 396.849 128.292 396.282 129.275C395.732 130.242 394.957 130.983 393.957 131.5C392.974 132 391.824 132.25 390.507 132.25C389.224 132.25 388.082 132 387.082 131.5C386.082 130.983 385.299 130.242 384.732 129.275C384.182 128.292 383.907 127.117 383.907 125.75C383.907 124.383 384.182 123.217 384.732 122.25C385.299 121.267 386.082 120.525 387.082 120.025C388.082 119.508 389.224 119.25 390.507 119.25ZM390.507 122.275C390.024 122.275 389.607 122.392 389.257 122.625C388.907 122.858 388.641 123.233 388.457 123.75C388.274 124.267 388.182 124.933 388.182 125.75C388.182 126.567 388.274 127.233 388.457 127.75C388.641 128.25 388.907 128.625 389.257 128.875C389.607 129.108 390.024 129.225 390.507 129.225C391.007 129.225 391.432 129.108 391.782 128.875C392.132 128.625 392.399 128.25 392.582 127.75C392.766 127.233 392.857 126.567 392.857 125.75C392.857 124.933 392.766 124.267 392.582 123.75C392.399 123.233 392.132 122.858 391.782 122.625C391.432 122.392 391.007 122.275 390.507 122.275ZM390.257 113.55H394.207L391.682 117.875H388.582L390.257 113.55ZM411.452 116.15L411.802 119C411.702 118.967 411.602 118.95 411.502 118.95C411.402 118.933 411.302 118.925 411.202 118.925C410.469 118.925 409.919 119.108 409.552 119.475C409.202 119.825 409.027 120.267 409.027 120.8L407.527 120.25C407.527 119.567 407.652 118.908 407.902 118.275C408.152 117.642 408.535 117.125 409.052 116.725C409.585 116.325 410.252 116.125 411.052 116.125C411.102 116.125 411.16 116.125 411.227 116.125C411.31 116.125 411.385 116.133 411.452 116.15ZM407.152 129.225C408.602 129.225 409.71 129.533 410.477 130.15C411.26 130.75 411.652 131.617 411.652 132.75C411.652 133.783 411.369 134.642 410.802 135.325C410.235 136.008 409.435 136.517 408.402 136.85C407.385 137.2 406.177 137.375 404.777 137.375C402.51 137.375 400.877 137.092 399.877 136.525C398.877 135.958 398.377 135.192 398.377 134.225C398.377 133.525 398.66 132.958 399.227 132.525C399.794 132.092 400.735 131.858 402.052 131.825L401.952 132.225C400.935 132.092 400.177 131.792 399.677 131.325C399.177 130.858 398.927 130.225 398.927 129.425C398.927 128.625 399.244 127.975 399.877 127.475C400.51 126.975 401.352 126.7 402.402 126.65L403.952 127.375H403.552C402.902 127.408 402.444 127.517 402.177 127.7C401.91 127.883 401.777 128.108 401.777 128.375C401.777 128.658 401.894 128.875 402.127 129.025C402.36 129.158 402.71 129.225 403.177 129.225H407.152ZM404.802 134.625C405.602 134.625 406.26 134.567 406.777 134.45C407.31 134.35 407.71 134.2 407.977 134C408.244 133.817 408.377 133.6 408.377 133.35C408.377 133.1 408.285 132.9 408.102 132.75C407.919 132.617 407.585 132.55 407.102 132.55H402.627C402.31 132.55 402.052 132.633 401.852 132.8C401.669 132.967 401.577 133.175 401.577 133.425C401.577 133.808 401.86 134.1 402.427 134.3C402.994 134.517 403.785 134.625 404.802 134.625ZM404.952 119.25C406.219 119.25 407.302 119.417 408.202 119.75C409.102 120.083 409.785 120.567 410.252 121.2C410.735 121.817 410.977 122.583 410.977 123.5C410.977 124.4 410.735 125.167 410.252 125.8C409.785 126.433 409.102 126.917 408.202 127.25C407.302 127.567 406.219 127.725 404.952 127.725C402.969 127.725 401.46 127.358 400.427 126.625C399.41 125.892 398.902 124.85 398.902 123.5C398.902 122.583 399.135 121.817 399.602 121.2C400.085 120.567 400.777 120.083 401.677 119.75C402.577 119.417 403.669 119.25 404.952 119.25ZM404.952 121.675C404.402 121.675 403.952 121.833 403.602 122.15C403.269 122.467 403.102 122.917 403.102 123.5C403.102 124.067 403.269 124.508 403.602 124.825C403.952 125.142 404.402 125.3 404.952 125.3C405.485 125.3 405.927 125.142 406.277 124.825C406.627 124.508 406.802 124.067 406.802 123.5C406.802 122.917 406.627 122.467 406.277 122.15C405.927 121.833 405.485 121.675 404.952 121.675ZM415.466 118.05C414.6 118.05 413.966 117.892 413.566 117.575C413.183 117.242 412.991 116.725 412.991 116.025C412.991 115.308 413.183 114.792 413.566 114.475C413.966 114.142 414.6 113.975 415.466 113.975C416.316 113.975 416.941 114.142 417.341 114.475C417.741 114.792 417.941 115.308 417.941 116.025C417.941 116.725 417.741 117.242 417.341 117.575C416.941 117.892 416.316 118.05 415.466 118.05ZM417.591 119.5V132H413.341V119.5H417.591ZM426.542 119.25C427.808 119.25 428.858 119.433 429.692 119.8C430.542 120.15 431.2 120.625 431.667 121.225C432.15 121.808 432.45 122.442 432.567 123.125L428.642 124.425C428.525 123.708 428.308 123.175 427.992 122.825C427.692 122.458 427.25 122.275 426.667 122.275C426.133 122.275 425.683 122.4 425.317 122.65C424.967 122.883 424.7 123.267 424.517 123.8C424.333 124.317 424.242 124.983 424.242 125.8C424.242 126.617 424.342 127.283 424.542 127.8C424.742 128.3 425.025 128.667 425.392 128.9C425.758 129.117 426.192 129.225 426.692 129.225C427.108 129.225 427.45 129.15 427.717 129C428 128.833 428.233 128.6 428.417 128.3C428.6 128 428.717 127.633 428.767 127.2L432.592 128.425C432.475 129.158 432.158 129.817 431.642 130.4C431.142 130.967 430.475 131.417 429.642 131.75C428.808 132.083 427.833 132.25 426.717 132.25C425.35 132.25 424.158 132 423.142 131.5C422.125 130.983 421.342 130.242 420.792 129.275C420.242 128.292 419.967 127.117 419.967 125.75C419.967 124.383 420.242 123.217 420.792 122.25C421.342 121.267 422.108 120.525 423.092 120.025C424.092 119.508 425.242 119.25 426.542 119.25ZM440.751 119.25C442.068 119.25 443.218 119.508 444.201 120.025C445.201 120.525 445.976 121.267 446.526 122.25C447.093 123.217 447.376 124.383 447.376 125.75C447.376 127.117 447.093 128.292 446.526 129.275C445.976 130.242 445.201 130.983 444.201 131.5C443.218 132 442.068 132.25 440.751 132.25C439.468 132.25 438.326 132 437.326 131.5C436.326 130.983 435.543 130.242 434.976 129.275C434.426 128.292 434.151 127.117 434.151 125.75C434.151 124.383 434.426 123.217 434.976 122.25C435.543 121.267 436.326 120.525 437.326 120.025C438.326 119.508 439.468 119.25 440.751 119.25ZM440.751 122.275C440.268 122.275 439.851 122.392 439.501 122.625C439.151 122.858 438.885 123.233 438.701 123.75C438.518 124.267 438.426 124.933 438.426 125.75C438.426 126.567 438.518 127.233 438.701 127.75C438.885 128.25 439.151 128.625 439.501 128.875C439.851 129.108 440.268 129.225 440.751 129.225C441.251 129.225 441.676 129.108 442.026 128.875C442.376 128.625 442.643 128.25 442.826 127.75C443.01 127.233 443.101 126.567 443.101 125.75C443.101 124.933 443.01 124.267 442.826 123.75C442.643 123.233 442.376 122.858 442.026 122.625C441.676 122.392 441.251 122.275 440.751 122.275ZM461.521 132.25C460.487 132.25 459.579 132 458.796 131.5C458.029 130.983 457.429 130.242 456.996 129.275C456.579 128.308 456.371 127.15 456.371 125.8C456.371 124.4 456.587 123.217 457.021 122.25C457.471 121.283 458.087 120.542 458.871 120.025C459.671 119.508 460.587 119.25 461.621 119.25C462.754 119.25 463.662 119.6 464.346 120.3C465.046 120.983 465.496 121.858 465.696 122.925L465.296 123.45V114.2H469.546V132H465.746L465.471 127.75L465.971 128.125C465.871 128.958 465.612 129.683 465.196 130.3C464.796 130.917 464.279 131.4 463.646 131.75C463.029 132.083 462.321 132.25 461.521 132.25ZM462.996 129.125C463.479 129.125 463.887 129 464.221 128.75C464.571 128.483 464.837 128.092 465.021 127.575C465.204 127.058 465.296 126.425 465.296 125.675C465.296 124.975 465.204 124.383 465.021 123.9C464.854 123.4 464.596 123.025 464.246 122.775C463.912 122.508 463.504 122.375 463.021 122.375C462.287 122.375 461.704 122.65 461.271 123.2C460.854 123.733 460.646 124.583 460.646 125.75C460.646 126.917 460.854 127.775 461.271 128.325C461.687 128.858 462.262 129.125 462.996 129.125ZM478.694 132.25C477.311 132.25 476.111 131.992 475.094 131.475C474.094 130.958 473.319 130.217 472.769 129.25C472.219 128.283 471.944 127.117 471.944 125.75C471.944 124.383 472.219 123.217 472.769 122.25C473.319 121.283 474.086 120.542 475.069 120.025C476.069 119.508 477.211 119.25 478.494 119.25C479.811 119.25 480.928 119.508 481.844 120.025C482.778 120.525 483.486 121.225 483.969 122.125C484.453 123.008 484.694 124.025 484.694 125.175C484.694 125.475 484.686 125.775 484.669 126.075C484.653 126.375 484.628 126.625 484.594 126.825H474.694V124.55H482.719L480.694 125.325C480.694 124.325 480.511 123.558 480.144 123.025C479.794 122.492 479.244 122.225 478.494 122.225C477.961 122.225 477.503 122.35 477.119 122.6C476.753 122.85 476.469 123.242 476.269 123.775C476.086 124.308 475.994 124.992 475.994 125.825C475.994 126.642 476.103 127.308 476.319 127.825C476.536 128.325 476.844 128.692 477.244 128.925C477.644 129.142 478.128 129.25 478.694 129.25C479.328 129.25 479.828 129.125 480.194 128.875C480.578 128.625 480.861 128.275 481.044 127.825L484.444 128.95C484.211 129.667 483.803 130.275 483.219 130.775C482.653 131.258 481.969 131.625 481.169 131.875C480.386 132.125 479.561 132.25 478.694 132.25ZM491.272 114.2V127.75C491.272 128.3 491.364 128.692 491.547 128.925C491.73 129.158 492.039 129.275 492.472 129.275C492.722 129.275 492.93 129.258 493.097 129.225C493.264 129.192 493.464 129.142 493.697 129.075L493.422 131.625C493.122 131.808 492.73 131.958 492.247 132.075C491.764 132.192 491.289 132.25 490.822 132.25C489.489 132.25 488.522 131.942 487.922 131.325C487.322 130.708 487.022 129.7 487.022 128.3V114.2H491.272ZM507.987 119.25C509.254 119.25 510.304 119.433 511.137 119.8C511.987 120.15 512.645 120.625 513.112 121.225C513.595 121.808 513.895 122.442 514.012 123.125L510.087 124.425C509.97 123.708 509.754 123.175 509.437 122.825C509.137 122.458 508.695 122.275 508.112 122.275C507.579 122.275 507.129 122.4 506.762 122.65C506.412 122.883 506.145 123.267 505.962 123.8C505.779 124.317 505.687 124.983 505.687 125.8C505.687 126.617 505.787 127.283 505.987 127.8C506.187 128.3 506.47 128.667 506.837 128.9C507.204 129.117 507.637 129.225 508.137 129.225C508.554 129.225 508.895 129.15 509.162 129C509.445 128.833 509.679 128.6 509.862 128.3C510.045 128 510.162 127.633 510.212 127.2L514.037 128.425C513.92 129.158 513.604 129.817 513.087 130.4C512.587 130.967 511.92 131.417 511.087 131.75C510.254 132.083 509.279 132.25 508.162 132.25C506.795 132.25 505.604 132 504.587 131.5C503.57 130.983 502.787 130.242 502.237 129.275C501.687 128.292 501.412 127.117 501.412 125.75C501.412 124.383 501.687 123.217 502.237 122.25C502.787 121.267 503.554 120.525 504.537 120.025C505.537 119.508 506.687 119.25 507.987 119.25ZM523.222 124.075C523.222 123.492 523.055 123.033 522.722 122.7C522.405 122.35 521.972 122.175 521.422 122.175C520.872 122.175 520.397 122.317 519.997 122.6C519.613 122.867 519.347 123.35 519.197 124.05L515.597 123.2C515.83 122 516.447 121.042 517.447 120.325C518.447 119.608 519.855 119.25 521.672 119.25C522.888 119.25 523.922 119.433 524.772 119.8C525.638 120.15 526.297 120.683 526.747 121.4C527.213 122.1 527.447 122.967 527.447 124V128.575C527.447 129.225 527.738 129.55 528.322 129.55C528.622 129.55 528.863 129.517 529.047 129.45L528.797 131.875C528.297 132.108 527.688 132.225 526.972 132.225C526.322 132.225 525.747 132.125 525.247 131.925C524.747 131.708 524.355 131.392 524.072 130.975C523.788 130.542 523.647 130 523.647 129.35V129.2L524.122 129.025C524.122 129.742 523.905 130.342 523.472 130.825C523.055 131.308 522.505 131.667 521.822 131.9C521.155 132.133 520.455 132.25 519.722 132.25C518.872 132.25 518.13 132.117 517.497 131.85C516.863 131.583 516.372 131.2 516.022 130.7C515.688 130.183 515.522 129.55 515.522 128.8C515.522 127.9 515.788 127.158 516.322 126.575C516.872 125.975 517.73 125.558 518.897 125.325L523.622 124.35L523.597 126.6L521.197 127.1C520.697 127.2 520.322 127.35 520.072 127.55C519.838 127.733 519.722 128.017 519.722 128.4C519.722 128.767 519.855 129.042 520.122 129.225C520.388 129.408 520.705 129.5 521.072 129.5C521.355 129.5 521.622 129.458 521.872 129.375C522.138 129.292 522.372 129.167 522.572 129C522.772 128.817 522.93 128.592 523.047 128.325C523.163 128.058 523.222 127.742 523.222 127.375V124.075ZM530.724 132V119.5H534.474L534.649 122.2C534.966 121.267 535.433 120.542 536.049 120.025C536.683 119.508 537.483 119.25 538.449 119.25C538.766 119.25 539.033 119.275 539.249 119.325C539.483 119.375 539.666 119.442 539.799 119.525L539.374 123.025C539.208 122.958 538.991 122.908 538.724 122.875C538.474 122.825 538.166 122.8 537.799 122.8C537.299 122.8 536.833 122.908 536.399 123.125C535.966 123.342 535.616 123.667 535.349 124.1C535.099 124.517 534.974 125.05 534.974 125.7V132H530.724ZM543.591 118.05C542.725 118.05 542.091 117.892 541.691 117.575C541.308 117.242 541.116 116.725 541.116 116.025C541.116 115.308 541.308 114.792 541.691 114.475C542.091 114.142 542.725 113.975 543.591 113.975C544.441 113.975 545.066 114.142 545.466 114.475C545.866 114.792 546.066 115.308 546.066 116.025C546.066 116.725 545.866 117.242 545.466 117.575C545.066 117.892 544.441 118.05 543.591 118.05ZM545.716 119.5V132H541.466V119.5H545.716ZM556.767 132.25C555.95 132.25 555.225 132.067 554.592 131.7C553.975 131.333 553.467 130.833 553.067 130.2C552.667 129.55 552.408 128.817 552.292 128L552.692 127.475L552.467 132H548.742V114.2H552.992V123.425L552.592 122.825C552.825 121.792 553.3 120.942 554.017 120.275C554.733 119.592 555.7 119.25 556.917 119.25C557.883 119.25 558.742 119.508 559.492 120.025C560.258 120.542 560.85 121.292 561.267 122.275C561.7 123.242 561.917 124.417 561.917 125.8C561.917 127.15 561.7 128.308 561.267 129.275C560.833 130.242 560.233 130.983 559.467 131.5C558.7 132 557.8 132.25 556.767 132.25ZM555.292 129.125C556.025 129.125 556.6 128.858 557.017 128.325C557.433 127.775 557.642 126.917 557.642 125.75C557.642 124.583 557.433 123.733 557.017 123.2C556.6 122.65 556.025 122.375 555.292 122.375C554.808 122.375 554.392 122.517 554.042 122.8C553.708 123.067 553.45 123.45 553.267 123.95C553.083 124.45 552.992 125.058 552.992 125.775C552.992 126.492 553.083 127.1 553.267 127.6C553.45 128.1 553.717 128.483 554.067 128.75C554.417 129 554.825 129.125 555.292 129.125ZM570.516 132.25C569.132 132.25 567.932 131.992 566.916 131.475C565.916 130.958 565.141 130.217 564.591 129.25C564.041 128.283 563.766 127.117 563.766 125.75C563.766 124.383 564.041 123.217 564.591 122.25C565.141 121.283 565.907 120.542 566.891 120.025C567.891 119.508 569.032 119.25 570.316 119.25C571.632 119.25 572.749 119.508 573.666 120.025C574.599 120.525 575.307 121.225 575.791 122.125C576.274 123.008 576.516 124.025 576.516 125.175C576.516 125.475 576.507 125.775 576.491 126.075C576.474 126.375 576.449 126.625 576.416 126.825H566.516V124.55H574.541L572.516 125.325C572.516 124.325 572.332 123.558 571.966 123.025C571.616 122.492 571.066 122.225 570.316 122.225C569.782 122.225 569.324 122.35 568.941 122.6C568.574 122.85 568.291 123.242 568.091 123.775C567.907 124.308 567.816 124.992 567.816 125.825C567.816 126.642 567.924 127.308 568.141 127.825C568.357 128.325 568.666 128.692 569.066 128.925C569.466 129.142 569.949 129.25 570.516 129.25C571.149 129.25 571.649 129.125 572.016 128.875C572.399 128.625 572.682 128.275 572.866 127.825L576.266 128.95C576.032 129.667 575.624 130.275 575.041 130.775C574.474 131.258 573.791 131.625 572.991 131.875C572.207 132.125 571.382 132.25 570.516 132.25Z" fill="#5A5A5B"/>
<path d="M149 41V133" stroke="#AEAFB3" stroke-width="2"/>
<g clip-path="url(#clip0_53_18)">
<path fill-rule="evenodd" clip-rule="evenodd" d="M42.5697 74.2903V74.3273C42.5325 74.4985 42.5185 74.6234 42.5185 74.7067C42.5185 75.2388 42.8259 75.6367 43.4312 75.8958C44.0459 76.1549 44.9913 76.2845 46.2672 76.2845C47.2405 76.2845 47.9996 76.1781 48.5537 75.9652C49.1079 75.7524 49.3873 75.4609 49.3873 75.0861C49.3873 74.5216 48.2883 74.0682 46.1089 73.7119C45.8528 73.6703 45.6619 73.6379 45.5361 73.6194C45.3964 73.5916 45.1915 73.5593 44.9214 73.5176C41.4521 72.9531 39.2168 72.3424 38.2343 71.6807C37.7546 71.3569 37.3867 70.9775 37.1399 70.5379C36.9024 70.0984 36.7767 69.6033 36.7767 69.0573C36.7767 67.7063 37.573 66.6837 39.1656 65.9758C40.7582 65.2725 43.0913 64.9209 46.1648 64.9209C49.2383 64.9209 51.4456 65.2494 52.9078 65.911C54.3701 66.5727 55.1012 67.5952 55.1012 68.9648V69.1221H49.3547V69.0619C49.3547 68.5854 49.066 68.2337 48.4839 67.9931C47.9018 67.7479 47.0496 67.623 45.9273 67.623C45.0565 67.623 44.3812 67.7063 43.9156 67.8821C43.4406 68.0533 43.2031 68.3031 43.2031 68.6224C43.2031 69.1961 44.4557 69.6773 46.9611 70.0799C47.4408 70.1539 47.8226 70.2094 48.0974 70.251C49.8809 70.5472 51.1522 70.8016 51.9113 71.0191C52.6703 71.2319 53.3223 71.4818 53.8718 71.7733C54.4818 72.1064 54.9615 72.5275 55.2875 73.0364C55.6181 73.5454 55.7857 74.096 55.7857 74.7021C55.7857 76.0948 54.9149 77.159 53.1826 77.9085C51.4456 78.6581 48.9449 79.0328 45.6851 79.0328C42.4254 79.0328 40.1249 78.6719 38.686 77.9548C37.2424 77.233 36.5252 76.0809 36.5252 74.4893V74.2857H42.5697V74.2903ZM58.3144 78.8061V65.1337H74.697V68.081H64.466V70.2557H73.9287V73.166H64.466V75.8172H75.0835V78.8015H58.3097L58.3144 78.8061ZM77.6541 78.8061V65.1337H85.4403L93.7759 74.3088V65.1337H99.6854V78.8061H91.6105L83.5496 69.6033V78.8061H77.6588H77.6541ZM115.579 73.3557L112.636 68.3864L109.525 73.3557H115.584H115.579ZM106.205 78.8061H100.035L109.558 65.1337H116.385L125.47 78.8061H118.62L117.232 76.34H107.69L106.21 78.8061H106.205Z" fill="#39A900"/>
<path fill-rule="evenodd" clip-rule="evenodd" d="M51.2128 127.009L45.7177 121.873L62.4496 93.0245C63.3624 91.4513 62.2214 89.4849 60.3913 89.4849H33V82.2716H77.0813L51.2128 127.009Z" fill="#39A900"/>
<path fill-rule="evenodd" clip-rule="evenodd" d="M110.787 127.009L116.282 121.873L99.5504 93.0245C98.6377 91.4513 99.7786 89.4849 101.609 89.4849H128.995V82.2716H84.9141L110.783 127.009H110.787Z" fill="#39A900"/>
<path fill-rule="evenodd" clip-rule="evenodd" d="M80.667 89.8967C80.7043 89.8273 80.7276 89.7949 80.7276 89.7949L105.567 130.59L98.9683 134L82.9629 107.368C82.0222 105.799 79.731 105.795 78.795 107.368C73.4583 116.302 62.892 134 62.892 134L56.433 130.826C56.433 130.826 79.3352 92.1361 80.6624 89.8967H80.667Z" fill="#39A900"/>
<path d="M80.9977 61.3582C86.6558 61.3582 91.2427 56.8009 91.2427 51.1791C91.2427 45.5573 86.6558 41 80.9977 41C75.3395 41 70.7527 45.5573 70.7527 51.1791C70.7527 56.8009 75.3395 61.3582 80.9977 61.3582Z" fill="#39A900"/>
</g>
<defs>
<clipPath id="clip0_53_18">
<rect width="96" height="93" fill="white" transform="translate(33 41)"/>
</clipPath>
</defs>
</svg>
